<svg xmlns="http://www.w3.org/2000/svg" viewBox="0 0 33 36"><g id="Camada_2" data-name="Camada 2"><g id="Camada_1-2" data-name="Camada 1"><path d="M0,0V16.57H2.17V2.27H15.71V0Z"/><path d="M33,36V19.44H30.83V33.73H17.29V36Z"/><path d="M10.4,16.56V12.87L6.7,7H8.89l2.42,3.82L13.73,7h2.19l-3.7,5.84v3.69Z"/><path d="M25.48,7v5.12a4.22,4.22,0,1,1-8.44,0V7h1.82v5.12a2.41,2.41,0,1,0,4.81,0V7Z"/><path d="M15.58,27.13a5.11,5.11,0,0,1-.71.83,4.29,4.29,0,0,1-1.94,1,5,5,0,0,1-1.18.14,4.88,4.88,0,0,1-1.93-.37,4.37,4.37,0,0,1-1.5-1,4.64,4.64,0,0,1-1-1.56,5.78,5.78,0,0,1,0-4,4.69,4.69,0,0,1,1-1.57,4.34,4.34,0,0,1,1.5-1,4.88,4.88,0,0,1,1.93-.37A5.34,5.34,0,0,1,13,19.4a4.28,4.28,0,0,1,1.08.43,4,4,0,0,1,.91.67,4.25,4.25,0,0,1,.69.89l-1.56,1a2.81,2.81,0,0,0-1-.94,2.72,2.72,0,0,0-1.38-.34,3,3,0,0,0-1.16.22,2.93,2.93,0,0,0-.92.62A2.79,2.79,0,0,0,9,23a3.24,3.24,0,0,0-.22,1.23A3.33,3.33,0,0,0,9,25.44a2.79,2.79,0,0,0,.62,1,2.9,2.9,0,0,0,.92.61,3,3,0,0,0,1.14.21,2.82,2.82,0,0,0,1.38-.33,2.94,2.94,0,0,0,1-.94Z"/><path d="M19.72,25.56h3.09l-1.55-3.51Zm3.93,1.91H18.88L18.22,29h-2l4.2-9.52h1.69L26.3,29h-2Z"/></g></g></svg>